<?xml version="1.0" encoding="utf-8"?>
<!-- Generator: Adobe Illustrator 15.1.0, SVG Export Plug-In . SVG Version: 6.00 Build 0)  -->
<!DOCTYPE svg PUBLIC "-//W3C//DTD SVG 1.1//EN" "http://www.w3.org/Graphics/SVG/1.1/DTD/svg11.dtd">
<svg version="1.1" id="Calque_1" xmlns="http://www.w3.org/2000/svg" xmlns:xlink="http://www.w3.org/1999/xlink" x="0px" y="0px"
	 width="33.332px" height="28.962px" viewBox="0 0 33.332 28.962" enable-background="new 0 0 33.332 28.962" xml:space="preserve">
<path d="M32.412,5.313c-0.086-0.025-0.175-0.038-0.263-0.038H7.162l-1.195-4.32C5.859,0.539,5.489,0.252,5.064,0.252H1.069
	C0.554,0.32,0.19,0.796,0.259,1.312c0.062,0.467,0.463,0.819,0.933,0.819h0c0.042,0,0.083-0.003,0.126-0.008l3.012-0.005
	l1.158,4.135c0.008,0.03,0.018,0.057,0.029,0.084L5.535,6.43C5.542,6.472,5.561,6.53,5.586,6.586
	c0.021,0.065,0.03,0.093,0.042,0.121l3.517,12.695c0.016,0.069,0.035,0.127,0.061,0.185l0.842,3.078l-0.18,0.093
	C8.79,23.313,8.12,24.389,8.12,25.563c0,1.736,1.429,3.148,3.185,3.148c1.736,0,3.149-1.412,3.149-3.148
	c0-0.335-0.095-0.647-0.209-0.992l-0.109-0.329h8.934l-0.112,0.33c-0.115,0.342-0.172,0.666-0.172,0.991
	c0,1.736,1.429,3.148,3.186,3.148c1.736,0,3.148-1.412,3.148-3.148c0-1.757-1.412-3.186-3.148-3.186H11.89l-0.616-2.273h17.208
	c0.425,0,0.797-0.287,0.903-0.698l3.658-12.934C33.188,5.977,32.905,5.458,32.412,5.313z M25.926,24.245h0.045
	c0.732,0,1.284,0.567,1.284,1.32c0,0.732-0.552,1.284-1.284,1.284c-0.754,0-1.322-0.552-1.322-1.284
	C24.648,24.847,25.21,24.267,25.926,24.245z M11.306,24.245c0.732,0,1.285,0.567,1.285,1.32c0,0.744-0.541,1.284-1.285,1.284
	c-0.753,0-1.321-0.552-1.321-1.284c0-0.687,0.511-1.254,1.188-1.319L11.306,24.245z M27.785,18.244H10.783L7.688,7.142h23.229
	L27.785,18.244z"/>
</svg>
