<?xml version="1.0" encoding="utf-8"?>
<!-- Generator: Adobe Illustrator 15.1.0, SVG Export Plug-In . SVG Version: 6.00 Build 0)  -->
<!DOCTYPE svg PUBLIC "-//W3C//DTD SVG 1.1//EN" "http://www.w3.org/Graphics/SVG/1.1/DTD/svg11.dtd">
<svg version="1.1" id="Calque_1" xmlns="http://www.w3.org/2000/svg" xmlns:xlink="http://www.w3.org/1999/xlink" x="0px" y="0px"
	 width="47.513px" height="36.538px" viewBox="0 0 47.513 36.538" enable-background="new 0 0 47.513 36.538" xml:space="preserve">
<g>
	<path d="M30.353,24.362c0.128-0.132,0.413-0.279,1.08-0.281h0.057v-2.14l-0.057-0.001c-0.959-0.003-1.9,0.222-2.592,0.905
		c-0.687,0.689-0.933,1.649-0.93,2.689v0.085c-0.003,1.042,0.243,2.003,0.932,2.691c0.355,0.353,0.777,0.579,1.234,0.72
		c-0.018,1.094-0.199,2.322-0.654,3.676c0.829-0.484,1.679-0.867,2.525-1.169c0.002-0.012,0.004-0.023,0.006-0.035l0.001,0.001
		c0.392-1.875,0.352-4.089,0.352-4.089c0-0.188-0.153-0.339-0.341-0.339h-0.477v-0.001h-0.057c-0.669-0.003-0.954-0.149-1.08-0.28
		c-0.132-0.126-0.298-0.427-0.302-1.174v-0.085C30.055,24.792,30.221,24.49,30.353,24.362 M6.055,22.914H4.528
		c-0.187,0-0.339,0.152-0.339,0.339v9.51c0.721-0.432,1.466-0.764,2.206-1.02v-8.491C6.396,23.066,6.242,22.914,6.055,22.914
		 M10.981,15.869h0.175c2.309,0,4.267-0.53,5.642-1.894c1.373-1.371,1.965-3.388,1.962-5.927V7.822
		c0.003-2.533-0.589-4.55-1.962-5.923c-1.377-1.368-3.344-1.902-5.663-1.9h-0.154c-2.32-0.002-4.286,0.532-5.663,1.9
		C3.945,3.271,3.353,5.29,3.356,7.822v0.225c-0.003,2.539,0.589,4.556,1.962,5.927C6.697,15.342,8.663,15.872,10.981,15.869
		 M6.829,3.417c0.814-0.814,2.125-1.272,4.152-1.275h0.154c0.369,0.001,0.707,0.021,1.029,0.051
		c-0.241,0.603-0.583,1.036-1.062,1.379c-0.705,0.5-1.847,0.832-3.586,0.831H6.138C6.333,4.011,6.563,3.681,6.829,3.417
		 M5.497,7.822C5.499,7.374,5.524,6.971,5.563,6.59h1.953c1.996,0,3.607-0.364,4.844-1.228c0.932-0.646,1.57-1.566,1.944-2.629
		c0.385,0.187,0.714,0.414,0.983,0.683c0.817,0.811,1.331,2.169,1.333,4.406v0.225c-0.002,2.243-0.516,3.601-1.332,4.409
		c-0.813,0.814-2.124,1.269-4.153,1.272h-0.154c-2.029-0.003-3.34-0.458-4.152-1.272C6.012,11.648,5.5,10.291,5.496,8.047
		L5.497,7.822L5.497,7.822z M17.66,16.913c-0.14-0.006-0.296-0.01-0.455-0.013c0.001-0.002,0.001-0.003,0.002-0.005H13.9
		c-0.185,0-0.339,0.153-0.339,0.339v1.855c-0.578-0.511-1.132-1.011-1.471-1.395c-0.152-0.174-0.27-0.283-0.424-0.283H10.76
		c-0.154,0-0.271,0.109-0.424,0.283c-0.339,0.385-0.895,0.886-1.474,1.397v-0.56c0.001-0.008,0.004-0.014,0.004-0.022v-1.275
		c0-0.186-0.152-0.339-0.339-0.339H5.22c0.001,0.002,0.002,0.003,0.003,0.005c-0.16,0.003-0.315,0.007-0.455,0.013
		C2.63,16.946,0,17.185,0,21.171v11.377c0,0.188,0.152,0.34,0.34,0.34h1.527c0.186,0,0.339-0.152,0.339-0.34V21.562
		c0-2.02,0.407-2.681,2.546-2.681c0.168,0,0.794-0.025,1.243-0.034h0.914v2.136c0,0.009,0.005,0.01,0.006,0.018
		c0,0.07,0.029,0.143,0.091,0.207l0.907,0.901c0.12,0.122,0.287,0.08,0.399-0.027c0.602-0.575,2.418-2.014,2.901-2.669
		c0.482,0.655,2.299,2.094,2.901,2.669c0.112,0.108,0.279,0.149,0.399,0.027l0.907-0.901c0.064-0.066,0.092-0.142,0.091-0.215
		c0-0.004,0.003-0.005,0.003-0.01v-2.136h0.92c0.448,0.009,1.074,0.034,1.243,0.034c2.138,0,2.546,0.661,2.546,2.681v10.986
		c0,0.188,0.152,0.34,0.338,0.34h1.528c0.186,0,0.34-0.152,0.34-0.34V21.171C22.428,17.185,19.798,16.946,17.66,16.913
		 M45.549,17.413c-0.899-0.477-1.551-1-2.011-1.67c-0.459-0.669-0.744-1.515-0.902-2.673c0.833-1.293,1.209-2.967,1.207-4.973V7.871
		c0.002-2.532-0.591-4.549-1.963-5.921c-1.377-1.368-3.343-1.902-5.662-1.9h-0.154c-2.32-0.002-4.286,0.532-5.663,1.9
		c-1.372,1.372-1.965,3.39-1.962,5.921v0.226c-0.002,2.54,0.589,4.557,1.963,5.928c1.377,1.367,3.345,1.897,5.662,1.894h0.175
		c1.822,0,3.42-0.339,4.69-1.147c0.2,0.822,0.471,1.542,0.875,2.173h-2.82c-0.187,0-0.339,0.152-0.339,0.339v1.855
		c-0.578-0.511-1.132-1.011-1.471-1.396c-0.153-0.174-0.27-0.283-0.425-0.283h-0.904c-0.155,0-0.271,0.109-0.425,0.283
		c-0.34,0.386-0.895,0.886-1.474,1.398v-0.56c0-0.008,0.004-0.015,0.004-0.023v-1.274c0-0.187-0.153-0.339-0.339-0.339h-3.308
		c0.002,0.001,0.002,0.003,0.003,0.004c-0.159,0.004-0.314,0.008-0.454,0.014c-2.139,0.034-4.77,0.271-4.77,4.259v11.377
		c0,0.188,0.153,0.339,0.34,0.339h1.528c0.187,0,0.338-0.151,0.338-0.339V21.611c0-2.02,0.408-2.68,2.546-2.68
		c0.169,0,0.795-0.025,1.243-0.034h0.915v2.136c0,0.007,0.004,0.014,0.005,0.021c0,0.016,0.005,0.029,0.008,0.043
		c0.018,0.084,0.063,0.154,0.129,0.203l0.863,0.859c0.12,0.122,0.286,0.08,0.399-0.028c0.601-0.575,2.418-2.014,2.9-2.668
		c0.482,0.655,2.299,2.094,2.9,2.668c0.112,0.108,0.28,0.15,0.4,0.028l0.871-0.866c0.043-0.036,0.081-0.078,0.103-0.131
		c0.017-0.039,0.024-0.077,0.023-0.116c0-0.005,0.003-0.009,0.003-0.013v-2.136h0.92c0.447,0.009,1.074,0.034,1.242,0.034
		c2.139,0,2.546,0.661,2.546,2.68v10.986c0,0.188,0.152,0.339,0.339,0.339h1.526c0.188,0,0.341-0.151,0.341-0.339V21.22
		C47.51,18.964,46.667,17.91,45.549,17.413 M31.912,3.465c0.813-0.815,2.123-1.272,4.151-1.275h0.154
		c0.561,0,1.062,0.04,1.518,0.108c-0.24,0.573-0.575,0.99-1.04,1.322c-0.706,0.5-1.846,0.832-3.586,0.83h-1.889
		C31.415,4.06,31.646,3.73,31.912,3.465 M41.701,8.097c-0.002,2.243-0.515,3.602-1.332,4.41c-0.813,0.813-2.123,1.269-4.151,1.271
		h-0.154c-2.029-0.002-3.34-0.458-4.152-1.271c-0.815-0.809-1.329-2.167-1.333-4.41V7.871c0.001-0.447,0.028-0.851,0.067-1.231
		h2.464c1.996,0,3.606-0.364,4.844-1.228c0.862-0.598,1.467-1.432,1.851-2.395c0.208,0.136,0.399,0.283,0.565,0.449
		c0.818,0.811,1.33,2.17,1.332,4.405V8.097z M17.979,34.129V23.503c0-0.187-0.153-0.34-0.339-0.34h-1.527
		c-0.187,0-0.34,0.153-0.34,0.34v9.444c-1.647-0.648-3.318-0.865-4.591-0.865h-0.033h-0.215h-0.033
		c-2.135,0-5.397,0.603-7.773,2.845C3,35.048,2.972,35.267,3.112,35.463l0.934,1.017c0.043,0.032,0.09,0.051,0.137,0.058
		l2.206-1.435c1.83-0.847,3.778-0.937,4.512-0.937h0.282c0.746,0,2.732,0.036,4.591,0.936l2.206,1.405
		c0.019-0.01,0.04-0.013,0.058-0.025l0.934-1.017c0.141-0.197,0.114-0.415-0.015-0.537C18.646,34.633,18.317,34.37,17.979,34.129"/>
	<path d="M44.83,34.735c0.14-0.196,0.338-0.386,0.208-0.508c-0.384-0.363-0.794-0.68-1.216-0.961l0.159,0.113
		c-0.865-1.824-1.237-3.579-1.238-4.949c0-1.596,0.396-2.88,0.792-3.761c0.198-0.44,0.393-0.778,0.534-0.999
		c0.026-0.042,0.049-0.075,0.071-0.109c0.014-0.013,0.029-0.021,0.041-0.037l0.192-0.264c0.11-0.15,0.076-0.364-0.075-0.474
		l-1.185-0.864c-0.151-0.11-0.364-0.076-0.475,0.074l-0.021,0.03l-0.005-0.004v-0.001c-0.081,0.105-2.003,2.488-2.012,6.409
		c-0.001,1.083,0.154,2.28,0.531,3.557 M41.775,32.197c-1.647-0.646-3.319-0.864-4.592-0.864l-0.032,0.001h-0.216l-0.032-0.001
		c-2.136,0-5.397,0.604-7.773,2.845c-0.129,0.121-0.156,0.34-0.016,0.536l0.934,1.017c0.043,0.032,0.09,0.05,0.137,0.058
		l2.206-1.435c1.83-0.847,3.778-0.937,4.513-0.937h0.281c0.746,0,2.731,0.036,4.592,0.936l2.206,1.405
		c0.019-0.01,0.04-0.013,0.057-0.026l0.935-1.016c0.142-0.197,0.114-0.415-0.015-0.537c-0.312-0.294-0.64-0.559-0.978-0.799"/>
</g>
</svg>
