<?xml version="1.0" encoding="utf-8"?>
<!-- Generator: Adobe Illustrator 15.1.0, SVG Export Plug-In . SVG Version: 6.00 Build 0)  -->
<!DOCTYPE svg PUBLIC "-//W3C//DTD SVG 1.1//EN" "http://www.w3.org/Graphics/SVG/1.1/DTD/svg11.dtd">
<svg version="1.1" id="Calque_1" xmlns="http://www.w3.org/2000/svg" xmlns:xlink="http://www.w3.org/1999/xlink" x="0px" y="0px"
	 width="105.779px" height="108.774px" viewBox="0 0 105.779 108.774" enable-background="new 0 0 105.779 108.774"
	 xml:space="preserve">
<g>
	<path fill="none" stroke="#000000" stroke-width="3.4385" stroke-miterlimit="10" d="M53.312,19.613
		c4.697,0,8.512-3.807,8.512-8.51c0-4.703-3.814-8.509-8.512-8.509c-4.695,0-8.507,3.808-8.507,8.509S48.616,19.613,53.312,19.613z"
		/>
	<path fill="none" stroke="#000000" stroke-width="3.4385" stroke-linejoin="round" stroke-miterlimit="10" d="M64.044,33.032
		l10.769,15.687c0.784,1.142,2.18,1.776,3.608,1.776c0.727,0,1.462-0.164,2.129-0.511c1.991-1.017,2.647-3.229,1.473-4.952
		l-15.448-22.5c-0.582-0.848-1.75-1.573-2.53-1.775c-5.136-1.335-16.265-1.158-21.461,0c-0.791,0.177-1.944,0.929-2.528,1.775
		l-15.445,22.5c-1.179,1.723-0.527,3.936,1.461,4.952c0.672,0.347,1.41,0.511,2.136,0.511c1.43,0,2.82-0.632,3.607-1.776
		l10.768-15.687v21.046v0.763h21.461v-0.766V33.032H64.044z"/>
</g>
<g>
	<path d="M11.08,68.106c-4.062,0-7.387-3.324-7.387-7.385c0-4.062,3.325-7.386,7.387-7.386s7.386,3.324,7.386,7.386
		C18.466,64.782,15.142,68.106,11.08,68.106 M11.08,55.797c-2.708,0-4.926,2.216-4.926,4.925s2.218,4.925,4.926,4.925
		c2.71,0,4.925-2.216,4.925-4.925S13.79,55.797,11.08,55.797"/>
	<path d="M13.543,97.657L13.543,97.657c-2.094-0.123-3.693-1.724-3.693-3.817V82.884h2.462V93.84c0,0.74,0.616,1.354,1.354,1.354
		c0.74,0,1.108-0.738,1.108-1.354v-24.5h2.463v24.5C17.236,95.934,16.004,97.534,13.543,97.657"/>
	<path d="M8.618,97.657L8.618,97.657c-2.093,0-3.693-1.724-3.693-3.817v-24.5h2.462v24.5c0,0.616,0.368,1.354,1.231,1.354
		c0.737,0,1.231-0.614,1.231-1.354v-2.341h2.462v2.341C12.312,95.934,10.711,97.657,8.618,97.657"/>
	<path d="M17.236,82.884L17.236,82.884V80.42c1.23,0,2.462-1.478,2.462-2.954v-6.895c0-1.231-1.231-2.463-2.707-2.463H5.171
		c-1.478,0-2.709,1.231-2.709,2.463v6.895c0,1.477,1.231,2.954,2.463,2.954v2.464H4.801C2.217,82.761,0,80.296,0,77.466v-6.895
		c0-2.708,2.338-4.925,5.171-4.925h11.82c2.832,0,5.17,2.217,5.17,4.925v6.895C22.161,80.296,19.823,82.761,17.236,82.884"/>
</g>
<g>
	<path d="M93.212,68.106c-4.062,0-7.387-3.324-7.387-7.385c0-4.062,3.325-7.386,7.387-7.386s7.386,3.324,7.386,7.386
		C100.598,64.782,97.273,68.106,93.212,68.106 M93.212,55.797c-2.708,0-4.926,2.216-4.926,4.925s2.218,4.925,4.926,4.925
		c2.71,0,4.925-2.216,4.925-4.925S95.922,55.797,93.212,55.797"/>
	<path d="M95.675,97.657L95.675,97.657c-2.094-0.123-3.693-1.724-3.693-3.817V82.884h2.462V93.84c0,0.74,0.616,1.354,1.354,1.354
		c0.74,0,1.108-0.738,1.108-1.354v-24.5h2.463v24.5C99.368,95.934,98.136,97.534,95.675,97.657"/>
	<path d="M90.75,97.657L90.75,97.657c-2.093,0-3.693-1.724-3.693-3.817v-24.5h2.462v24.5c0,0.616,0.368,1.354,1.231,1.354
		c0.737,0,1.231-0.614,1.231-1.354v-2.341h2.462v2.341C94.443,95.934,92.843,97.657,90.75,97.657"/>
	<path d="M99.368,82.884L99.368,82.884V80.42c1.23,0,2.462-1.478,2.462-2.954v-6.895c0-1.231-1.231-2.463-2.707-2.463h-11.82
		c-1.478,0-2.709,1.231-2.709,2.463v6.895c0,1.477,1.231,2.954,2.463,2.954v2.464h-0.124c-2.584-0.123-4.801-2.588-4.801-5.418
		v-6.895c0-2.708,2.338-4.925,5.171-4.925h11.82c2.832,0,5.17,2.217,5.17,4.925v6.895C104.293,80.296,101.955,82.761,99.368,82.884"
		/>
</g>
<g>
	<path d="M65.835,78.353c-4.062,0-7.387-3.324-7.387-7.385c0-4.062,3.325-7.386,7.387-7.386s7.386,3.324,7.386,7.386
		C73.221,75.028,69.896,78.353,65.835,78.353 M65.835,66.043c-2.708,0-4.926,2.216-4.926,4.925s2.218,4.925,4.926,4.925
		c2.71,0,4.925-2.216,4.925-4.925S68.545,66.043,65.835,66.043"/>
	<path d="M68.298,107.903L68.298,107.903c-2.094-0.123-3.693-1.724-3.693-3.817V93.13h2.462v10.956c0,0.74,0.616,1.354,1.354,1.354
		c0.74,0,1.108-0.738,1.108-1.354v-24.5h2.463v24.5C71.991,106.18,70.759,107.78,68.298,107.903"/>
	<path d="M63.373,107.903L63.373,107.903c-2.093,0-3.693-1.724-3.693-3.817v-24.5h2.462v24.5c0,0.616,0.368,1.354,1.231,1.354
		c0.737,0,1.231-0.614,1.231-1.354v-2.341h2.462v2.341C67.066,106.18,65.466,107.903,63.373,107.903"/>
	<path d="M71.991,93.13L71.991,93.13v-2.464c1.23,0,2.462-1.478,2.462-2.954v-6.895c0-1.231-1.231-2.463-2.707-2.463h-11.82
		c-1.478,0-2.709,1.231-2.709,2.463v6.895c0,1.477,1.231,2.954,2.463,2.954v2.464h-0.124c-2.584-0.123-4.801-2.588-4.801-5.418
		v-6.895c0-2.708,2.338-4.925,5.171-4.925h11.82c2.832,0,5.17,2.217,5.17,4.925v6.895C76.916,90.542,74.578,93.007,71.991,93.13"/>
</g>
<g>
	<path d="M38.457,78.353c-4.062,0-7.387-3.324-7.387-7.385c0-4.062,3.325-7.386,7.387-7.386s7.386,3.324,7.386,7.386
		C45.843,75.028,42.519,78.353,38.457,78.353 M38.457,66.043c-2.708,0-4.926,2.216-4.926,4.925s2.218,4.925,4.926,4.925
		c2.71,0,4.925-2.216,4.925-4.925S41.167,66.043,38.457,66.043"/>
	<path d="M40.92,107.903L40.92,107.903c-2.094-0.123-3.693-1.724-3.693-3.817V93.13h2.462v10.956c0,0.74,0.616,1.354,1.354,1.354
		c0.74,0,1.108-0.738,1.108-1.354v-24.5h2.463v24.5C44.613,106.18,43.381,107.78,40.92,107.903"/>
	<path d="M35.995,107.903L35.995,107.903c-2.093,0-3.693-1.724-3.693-3.817v-24.5h2.462v24.5c0,0.616,0.368,1.354,1.231,1.354
		c0.737,0,1.231-0.614,1.231-1.354v-2.341h2.462v2.341C39.688,106.18,38.088,107.903,35.995,107.903"/>
	<path d="M44.613,93.13L44.613,93.13v-2.464c1.23,0,2.462-1.478,2.462-2.954v-6.895c0-1.231-1.231-2.463-2.707-2.463h-11.82
		c-1.478,0-2.709,1.231-2.709,2.463v6.895c0,1.477,1.231,2.954,2.463,2.954v2.464h-0.124c-2.584-0.123-4.801-2.588-4.801-5.418
		v-6.895c0-2.708,2.338-4.925,5.171-4.925h11.82c2.832,0,5.17,2.217,5.17,4.925v6.895C49.538,90.542,47.2,93.007,44.613,93.13"/>
</g>
</svg>
