<?xml version="1.0" encoding="utf-8"?>
<!-- Generator: Adobe Illustrator 15.1.0, SVG Export Plug-In . SVG Version: 6.00 Build 0)  -->
<!DOCTYPE svg PUBLIC "-//W3C//DTD SVG 1.1//EN" "http://www.w3.org/Graphics/SVG/1.1/DTD/svg11.dtd">
<svg version="1.1" id="Calque_1" xmlns="http://www.w3.org/2000/svg" xmlns:xlink="http://www.w3.org/1999/xlink" x="0px" y="0px"
	 width="22.429px" height="36.538px" viewBox="0 0 22.429 36.538" enable-background="new 0 0 22.429 36.538" xml:space="preserve">
<g>
	<path d="M6.055,22.914H4.528c-0.187,0-0.339,0.152-0.339,0.339v9.51c0.721-0.432,1.466-0.764,2.206-1.02v-8.491
		C6.396,23.066,6.242,22.914,6.055,22.914 M10.981,15.869h0.175c2.309,0,4.267-0.53,5.642-1.894
		c1.373-1.371,1.966-3.388,1.963-5.927V7.822c0.003-2.533-0.59-4.55-1.963-5.923c-1.377-1.368-3.344-1.902-5.662-1.9h-0.154
		c-2.32-0.002-4.286,0.532-5.663,1.9C3.945,3.271,3.353,5.29,3.356,7.822v0.225c-0.003,2.539,0.589,4.556,1.962,5.927
		C6.697,15.342,8.663,15.872,10.981,15.869 M6.829,3.417c0.814-0.814,2.125-1.272,4.152-1.275h0.154
		c0.368,0.001,0.707,0.021,1.028,0.051c-0.241,0.603-0.583,1.036-1.062,1.379c-0.705,0.5-1.847,0.832-3.586,0.831H6.138
		C6.333,4.011,6.563,3.681,6.829,3.417 M5.497,7.822C5.499,7.374,5.524,6.971,5.563,6.59h1.953c1.996,0,3.607-0.364,4.844-1.228
		c0.932-0.646,1.57-1.566,1.944-2.629c0.385,0.187,0.714,0.414,0.982,0.683c0.817,0.811,1.331,2.169,1.333,4.406v0.225
		c-0.002,2.243-0.516,3.601-1.332,4.409c-0.813,0.814-2.124,1.269-4.152,1.272h-0.154c-2.029-0.003-3.34-0.458-4.152-1.272
		C6.012,11.648,5.5,10.291,5.496,8.047L5.497,7.822L5.497,7.822z M17.979,34.129V23.503c0-0.187-0.153-0.34-0.339-0.34h-1.527
		c-0.187,0-0.34,0.153-0.34,0.34v9.444c-1.647-0.648-3.318-0.865-4.591-0.865h-0.033h-0.215h-0.033
		c-2.135,0-5.397,0.603-7.773,2.845C3,35.048,2.972,35.267,3.112,35.463l0.934,1.017c0.043,0.032,0.09,0.051,0.137,0.058
		l2.206-1.435c1.83-0.847,3.778-0.937,4.512-0.937h0.282c0.746,0,2.731,0.036,4.591,0.936l2.206,1.405
		c0.019-0.01,0.04-0.013,0.058-0.025l0.935-1.017c0.141-0.197,0.113-0.415-0.016-0.537C18.646,34.633,18.317,34.37,17.979,34.129"/>
	<path d="M8.37,16.895H8.144H5.221c0.001,0.001,0.001,0.003,0.002,0.004c-0.159,0.004-0.315,0.008-0.455,0.014
		C2.63,16.947,0,17.185,0,21.171v11.377c0,0.188,0.153,0.34,0.34,0.34h1.528c0.185,0,0.338-0.152,0.338-0.34V21.562
		c0-2.02,0.407-2.68,2.546-2.68c0.169,0,0.795-0.026,1.243-0.034H6.91h2.222L8.37,16.895z"/>
	<path d="M17.66,16.913c-0.141-0.006-0.296-0.01-0.455-0.013c0.002-0.002,0.002-0.003,0.002-0.005h-3.306h-0.038l-0.763,1.953h2.413
		h0.92c0.448,0.009,1.074,0.034,1.243,0.034c2.14,0,2.546,0.661,2.546,2.681v10.986c0,0.188,0.153,0.34,0.338,0.34h1.528
		c0.188,0,0.34-0.152,0.34-0.34V21.171C22.428,17.185,19.798,16.946,17.66,16.913"/>
	<polygon points="9.29,16.895 12.819,16.895 12.101,18.803 10.069,18.803 	"/>
	<polygon points="12.257,29.302 9.788,29.302 10.008,19.426 12.04,19.426 	"/>
</g>
</svg>
