<?xml version="1.0" encoding="utf-8"?>
<!-- Generator: Adobe Illustrator 15.1.0, SVG Export Plug-In . SVG Version: 6.00 Build 0)  -->
<!DOCTYPE svg PUBLIC "-//W3C//DTD SVG 1.1//EN" "http://www.w3.org/Graphics/SVG/1.1/DTD/svg11.dtd">
<svg version="1.1" id="Calque_1" xmlns="http://www.w3.org/2000/svg" xmlns:xlink="http://www.w3.org/1999/xlink" x="0px" y="0px"
	 width="72px" height="59px" viewBox="0 0 72 59" enable-background="new 0 0 72 59" xml:space="preserve">
<g>
	<path d="M47.304,19.704c2.994-1.881,7.127-5.282,7.881-10.061c0.098-0.62-0.227-1.226-0.796-1.483
		C53.891,7.93,42.058,2.591,29.2,6.891c-5.687,1.902-10.62,5.501-14.805,10.537c-2.084-2.156-4.141-4.574-6.084-7.376
		C7.948,9.533,7.294,9.333,6.72,9.525C6.596,9.567,6.477,9.624,6.364,9.701c-0.629,0.441-0.786,1.31-0.351,1.945
		c2.11,3.041,4.334,5.651,6.586,7.964c-0.04,0.054-0.085,0.09-0.119,0.143c-0.189,0.327-9.411,18.023,7.164,35.352
		c0.426,0.451,1.062,0.578,1.657,0.274c0.274-0.143,6.165-3.275,7.969-9.85c4.849,2.888,18.904,9.347,38.443,1.443
		c0.649-0.262,1.002-0.961,0.827-1.639C68.32,44.464,63.191,25.292,47.304,19.704 M30.086,9.539
		c9.696-3.242,19.026-0.403,22.087,0.736c-1.68,5.331-9.061,8.529-9.137,8.561c-0.563,0.24-0.905,0.815-0.848,1.422
		c0.066,0.61,0.516,1.105,1.115,1.232c14.562,2.982,20.717,18.878,22.178,23.366c-21.759,8.247-36.185-2.639-36.33-2.743
		c-0.395-0.306-0.849-0.425-1.395-0.18c-0.458,0.194-0.781,0.624-0.844,1.122c-0.59,5.013-4.29,8.107-6.017,9.289
		c-12.92-14.259-7.364-28.279-6.243-30.707c11.351,10.596,22.739,13,23.337,13.118c0.759,0.155,1.492-0.339,1.641-1.096
		c0.149-0.758-0.338-1.492-1.095-1.643C38.4,31.99,27.294,29.624,16.369,19.384C20.205,14.702,24.799,11.308,30.086,9.539"/>
	<path fill="none" stroke="#000000" stroke-miterlimit="10" d="M55.185,9.643c0.098-0.62-0.227-1.226-0.796-1.483
		C53.891,7.93,42.058,2.591,29.2,6.891c-5.687,1.902-10.62,5.501-14.805,10.537c-2.084-2.156-4.141-4.574-6.084-7.376
		C7.948,9.533,7.294,9.333,6.72,9.525C6.596,9.567,6.477,9.624,6.364,9.701c-0.629,0.441-0.786,1.31-0.351,1.945
		c2.11,3.041,4.334,5.651,6.586,7.964c-0.04,0.054-0.085,0.09-0.119,0.143c-0.189,0.327-9.411,18.023,7.164,35.352
		c0.426,0.451,1.062,0.578,1.657,0.274c0.274-0.143,6.165-3.275,7.969-9.85c4.849,2.888,18.904,9.347,38.443,1.443
		c0.649-0.262,1.002-0.961,0.827-1.639c-0.222-0.87-5.351-20.042-21.238-25.63C50.298,17.823,54.431,14.422,55.185,9.643z
		 M52.174,10.275c-1.68,5.331-9.061,8.529-9.137,8.561c-0.563,0.24-0.905,0.815-0.848,1.422c0.066,0.61,0.516,1.105,1.115,1.232
		c14.562,2.982,20.717,18.878,22.178,23.366c-21.759,8.247-36.185-2.639-36.33-2.743c-0.395-0.306-0.849-0.425-1.395-0.18
		c-0.458,0.194-0.781,0.624-0.844,1.122c-0.59,5.013-4.29,8.107-6.017,9.289c-12.92-14.259-7.364-28.279-6.243-30.707
		c11.351,10.596,22.739,13,23.337,13.118c0.759,0.155,1.492-0.339,1.641-1.096c0.149-0.758-0.338-1.492-1.095-1.643
		C38.4,31.99,27.294,29.624,16.369,19.384c3.836-4.683,8.43-8.077,13.718-9.845C39.782,6.297,49.112,9.136,52.174,10.275z"/>
</g>
</svg>
