<?xml version="1.0" encoding="utf-8"?>
<!-- Generator: Adobe Illustrator 15.1.0, SVG Export Plug-In . SVG Version: 6.00 Build 0)  -->
<!DOCTYPE svg PUBLIC "-//W3C//DTD SVG 1.1//EN" "http://www.w3.org/Graphics/SVG/1.1/DTD/svg11.dtd">
<svg version="1.1" id="Calque_1" xmlns="http://www.w3.org/2000/svg" xmlns:xlink="http://www.w3.org/1999/xlink" x="0px" y="0px"
	 width="36.581px" height="36.166px" viewBox="0 0 36.581 36.166" enable-background="new 0 0 36.581 36.166" xml:space="preserve">
<g>
	<path d="M6.917,18.888c-2.444,0-4.444-2-4.444-4.444C2.473,12,4.473,10,6.917,10c2.445,0,4.445,2,4.445,4.443
		C11.361,16.888,9.361,18.888,6.917,18.888 M6.917,11.48c-1.63,0-2.963,1.333-2.963,2.963c0,1.631,1.333,2.964,2.963,2.964
		c1.63,0,2.963-1.333,2.963-2.964C9.88,12.813,8.547,11.48,6.917,11.48"/>
	<path d="M10.621,34.37c0,1.259-0.742,2.222-2.223,2.296c-1.259-0.074-2.222-1.037-2.222-2.296v-6.594h1.481v6.594
		c0,0.443,0.37,0.814,0.815,0.814c0.443,0,0.666-0.445,0.666-0.814V19.629h1.482"/>
	<path d="M5.435,36.666L5.435,36.666c-1.259,0-2.222-1.037-2.222-2.296V19.629h1.481V34.37c0,0.37,0.222,0.814,0.741,0.814
		c0.444,0,0.741-0.37,0.741-0.814v-1.408h1.481v1.408C7.657,35.629,6.694,36.666,5.435,36.666"/>
	<path d="M10.473,18.889H3.361c-0.889,0-1.63,0.74-1.63,1.48v4.149c0,0.889,0.741,1.776,1.482,1.776v1.482H3.139
		c-1.556-0.074-2.889-1.556-2.889-3.259v-4.149c0-1.629,1.407-2.962,3.111-2.962h7.111"/>
	<path d="M10.621,27.777"/>
</g>
<path fill="none" stroke="#000000" stroke-width="1.4829" stroke-linecap="round" stroke-miterlimit="10" d="M10.188,18.197
	c0,0,2.113-0.197,2.979,0.553c0.674,0.583,3.083,2,3.083,2"/>
<g>
	<path d="M27.54,12.054c-3.316,0-6.028-2.713-6.028-6.028C21.512,2.712,24.224,0,27.54,0c3.314,0,6.026,2.712,6.026,6.026
		C33.566,9.341,30.854,12.054,27.54,12.054 M27.54,2.008c-2.212,0-4.02,1.808-4.02,4.019c0,2.212,1.808,4.02,4.02,4.02
		c2.209,0,4.019-1.808,4.019-4.02C31.559,3.816,29.749,2.008,27.54,2.008"/>
	<path d="M22.516,33.052c0,1.708,1.006,3.014,3.014,3.114c1.709-0.101,3.015-1.406,3.015-3.114v-8.942h-2.009v8.942
		c0,0.602-0.502,1.105-1.106,1.105c-0.601,0-0.903-0.604-0.903-1.105V13.059h-2.01"/>
	<path d="M29.548,36.166L29.548,36.166c1.709,0,3.015-1.406,3.015-3.114V13.059h-2.009v19.993c0,0.502-0.301,1.105-1.006,1.105
		c-0.601,0-1.004-0.502-1.004-1.105v-1.909h-2.009v1.909C26.535,34.76,27.841,36.166,29.548,36.166"/>
	<path d="M22.717,12.055h9.645c1.205,0,2.212,1.004,2.212,2.008v5.627c0,1.205-1.007,2.409-2.011,2.409v2.011h0.101
		c2.11-0.101,3.918-2.11,3.918-4.42v-5.627c0-2.209-1.908-4.018-4.22-4.018h-9.645"/>
	<path d="M22.516,24.111"/>
</g>
<path fill="none" stroke="#000000" stroke-width="2.0113" stroke-linecap="round" stroke-miterlimit="10" d="M23.104,11.117
	c0,0-1.963-0.382-3.207,0.862c-1.243,1.244-3.729,8.703-3.729,8.703"/>
</svg>
