<svg xmlns="http://www.w3.org/2000/svg" xmlns:xlink="http://www.w3.org/1999/xlink" version="1.1" x="0px" y="0px" viewBox="0 0 100 100" enable-background="new 0 0 100 100" xml:space="preserve"><path d="M69.613,56.695C87.562,42.738,85.92,15.996,85.831,14.788c-0.066-0.943-0.817-1.686-1.76-1.745  c-28.4-1.752-43.63,12.535-48.602,18.309c-5.126-7.645-14.008-9.132-14.421-9.199c-0.891-0.133-1.65,0.302-2.003,1.061  c-13.802,29.283,5.583,47.991,5.965,48.329c0.066,0.052,0.139,0.081,0.213,0.132c-1.893,3.926-3.624,8.22-5.023,13.015  c-0.287,1.001,0.287,2.046,1.282,2.341c0.177,0.052,0.354,0.074,0.53,0.074c0.818,0,1.569-0.537,1.812-1.355  c1.288-4.419,2.887-8.396,4.632-12.049c7.513,4.655,15.37,7.151,23.465,7.151c18.302,0,31.168-11.902,31.707-12.41  c0.618-0.574,0.773-1.488,0.383-2.239C81,60.407,74.253,57.822,69.613,56.695z M51.923,77.082c-7.527,0-14.862-2.379-21.778-6.732  c9.603-17.787,22.809-25.572,22.971-25.667c0.905-0.516,1.216-1.664,0.7-2.571c-0.515-0.906-1.664-1.223-2.57-0.7  c-0.715,0.405-14.266,8.359-24.261,26.787C24.51,65.57,11.393,50,21.829,26.212c2.717,0.773,8.779,3.152,11.681,9.316  c0.295,0.611,0.892,1.023,1.561,1.075c0.803,0.081,1.334-0.266,1.709-0.825c0.14-0.198,13.949-20.312,45.338-19.068  c0.052,6.371-1.023,29.358-18.389,39.411c-0.715,0.42-1.076,1.245-0.899,2.055c0.184,0.803,0.869,1.392,1.694,1.459  c0.111,0.008,10.93,0.942,15.363,7.048C76.455,69.451,65.724,77.082,51.923,77.082z"></path></svg>