<svg xmlns="http://www.w3.org/2000/svg" xmlns:xlink="http://www.w3.org/1999/xlink" version="1.1" x="0px" y="0px" viewBox="0 0 80 80" enable-background="new 0 0 80 80" xml:space="preserve"><g><path fill="#000000" d="M41,35c-3.3,0-6-2.7-6-6s2.7-6,6-6s6,2.7,6,6S44.3,35,41,35z M41,25c-2.2,0-4,1.8-4,4s1.8,4,4,4s4-1.8,4-4   S43.2,25,41,25z"></path></g><g><path fill="#000000" d="M43,59L43,59c-1.7-0.1-3-1.4-3-3.1V47h2v8.9c0,0.6,0.5,1.1,1.1,1.1c0.6,0,0.9-0.6,0.9-1.1V36h2v19.9   C46,57.6,45,58.9,43,59L43,59z"></path></g><g><path fill="#000000" d="M39,59C39,59,39,59,39,59L39,59c-1.7,0-3-1.4-3-3.1V36h2v19.9c0,0.5,0.3,1.1,1,1.1c0.6,0,1-0.5,1-1.1V54h2   v1.9C42,57.6,40.7,59,39,59L39,59z"></path></g><g><path fill="#000000" d="M46,47L46,47v-2c1,0,2-1.2,2-2.4V37c0-1-1-2-2.2-2h-9.6C35,35,34,36,34,37v5.6c0,1.2,1,2.4,2,2.4v2l-0.1,0   c-2.1-0.1-3.9-2.1-3.9-4.4V37c0-2.2,1.9-4,4.2-4h9.6c2.3,0,4.2,1.8,4.2,4v5.6C50,44.9,48.1,46.9,46,47L46,47z"></path></g></svg>