<svg xmlns="http://www.w3.org/2000/svg" xmlns:xlink="http://www.w3.org/1999/xlink" version="1.1" x="0px" y="0px" viewBox="-2.496 -2.497 100 100" enable-background="new -2.496 -2.497 100 100" xml:space="preserve"><path fill="#000000" d="M70.869,69.219c-1.979-7.387-3.409-12.723-10.114-12.723c-1.562,0-3.383,0.293-5.73,0.922  c-3.343,0.896-5.678,2.309-7.275,3.889l-6.398-23.881c2.167,0.562,5.093,0.549,8.239-0.293c4.134-1.109,8.117-2.684,9.261-6.682  c0.842-2.943-0.065-6.333-1.439-11.461c-1.979-7.386-3.409-12.723-10.114-12.723c-1.562,0-3.383,0.293-5.73,0.922  C34.97,8.956,26.76,11.154,23.535,26.91c-1.871,9.148-1.5,17.443,1.244,27.745c2.772,10.287,6.599,17.658,12.794,24.643  c5.712,6.443,11.216,9.443,17.32,9.443c3.005,0,5.741-0.732,8.154-1.379c4.135-1.107,8.117-2.684,9.262-6.682  C73.151,77.736,72.243,74.35,70.869,69.219z M52.581,20.284c1.117,4.167,1.924,7.178,1.463,8.79  c-0.205,0.719-0.813,1.555-3.359,2.486l-5.384-20.092c0.766-0.133,1.43-0.201,1.996-0.201  C49.844,11.267,50.437,12.278,52.581,20.284z M41.314,75.98c-5.648-6.369-9.149-13.137-11.705-22.621  c-2.53-9.497-2.882-17.108-1.176-25.448c2.257-11.03,6.871-13.655,12.019-15.219l5.378,20.069c-0.396,0.041-0.782,0.068-1.15,0.068  c-3.984,0-5.172-2.371-5.274-2.596c-0.493-1.227-1.855-1.859-3.111-1.439c-1.254,0.418-1.966,1.742-1.624,3.02l10.094,37.67  c0.343,1.277,1.625,2.096,2.92,1.826c1.295-0.266,2.163-1.469,1.977-2.777c-0.039-0.391-0.183-3.447,4.293-5.455l5.378,20.072  c-1.453,0.338-2.935,0.59-4.438,0.59C52.019,83.74,47.481,82.936,41.314,75.98z M67.502,79.305  c-0.205,0.717-0.813,1.553-3.358,2.484L58.76,61.697c0.765-0.133,1.43-0.201,1.995-0.201c2.547,0,3.139,1.012,5.285,9.02  C67.156,74.682,67.963,77.693,67.502,79.305z"></path></svg>