<svg xmlns="http://www.w3.org/2000/svg" xmlns:xlink="http://www.w3.org/1999/xlink" version="1.1" x="0px" y="0px" viewBox="0 0 100 100" enable-background="new 0 0 100 100" xml:space="preserve"><g><path d="M76.649,57.563c-1.209-2.811-2.825-5.359-4.763-7.588c2.047-0.716,3.83-2.089,5.056-3.962   c1.463-2.235,1.969-4.906,1.423-7.521c-0.545-2.615-2.077-4.861-4.312-6.324C66.892,27.479,58.574,25,50,25   s-16.892,2.479-24.054,7.168c-2.235,1.463-3.767,3.709-4.312,6.324c-0.546,2.615-0.041,5.286,1.422,7.52   c1.233,1.883,3.029,3.262,5.091,3.975c-3.155,3.605-5.446,8.01-6.5,12.91c-0.639,2.968,0.089,6.025,1.998,8.388   C25.553,73.646,28.388,75,31.424,75h37.152c3.036,0,5.871-1.354,7.779-3.716c1.908-2.362,2.636-5.419,1.997-8.387   C77.959,61.071,77.386,59.276,76.649,57.563z M27.24,43.274c-1.513-2.311-0.866-5.41,1.444-6.922C35.031,32.196,42.402,30,50,30   c7.598,0,14.969,2.196,21.315,6.352c2.311,1.513,2.957,4.612,1.444,6.922c-1.512,2.31-4.61,2.958-6.922,1.444   C61.124,41.631,55.647,40,50,40s-11.124,1.632-15.838,4.718c-0.845,0.553-1.795,0.817-2.734,0.817   C29.797,45.536,28.199,44.74,27.24,43.274z M72.466,68.142C71.517,69.317,70.087,70,68.576,70H31.424   c-1.511,0-2.94-0.683-3.89-1.858c-0.949-1.175-1.316-2.716-0.999-4.193C28.896,52.969,38.765,45,50,45   c9.599,0,18.256,5.707,22.056,14.539c0.61,1.417,1.084,2.901,1.409,4.41C73.782,65.426,73.415,66.967,72.466,68.142z M50,65   c-4.136,0-7.5-3.364-7.5-7.5S45.864,50,50,50s7.5,3.364,7.5,7.5S54.136,65,50,65z M52.5,57.5c0-1.378-1.122-2.5-2.5-2.5   s-2.5,1.122-2.5,2.5S48.622,60,50,60S52.5,58.878,52.5,57.5z"></path></g></svg>