<svg xmlns="http://www.w3.org/2000/svg" xmlns:xlink="http://www.w3.org/1999/xlink" version="1.1" x="0px" y="0px" viewBox="0 0 100 100" enable-background="new 0 0 100 100" xml:space="preserve"><path fill="#000000" d="M63.2,47.1c0.8,0,1.5-0.5,1.8-1.2c0.4-1,0-2.2-1-2.6c-13.8-6-42.4-5.1-43.7-5c-1.1,0-2,1-1.9,2.1  c0,1.1,0.9,2,2.1,1.9c0.1,0,6.5-0.2,14.6,0.2v16.2c0,3-0.7,6.9-3.8,8.4c-3,1.5-7.8,0.4-11.7-2.6c-0.9-0.7-2.1-0.5-2.8,0.4  c-0.7,0.9-0.5,2.1,0.4,2.8c3.5,2.7,7.4,4.1,11,4.1c1.8,0,3.4-0.4,4.9-1.1c2-1,5.2-3.5,5.9-9.4c1,0.2,2.3,0.4,3.7,0.4  c2.4,0,5.3-0.5,8.4-2c1.7,2.6,6.3,9.6,10.7,15.2c0.4,0.5,1,0.8,1.6,0.8c0.4,0,0.9-0.1,1.2-0.4c0.9-0.7,1-1.9,0.3-2.8  c-4.8-6.1-9.9-14-10.9-15.6c-0.9-4.3-1.7-9.8-2.2-12.7c4,0.7,7.8,1.6,10.7,2.9C62.7,47.1,62.9,47.1,63.2,47.1z M39,57.2V42.7  c2.8,0.2,5.7,0.4,8.5,0.8c0.3,1.9,1.1,7.5,2,12.4C45,58.3,40.9,57.7,39,57.2z"></path><path fill="#000000" d="M76.5,57.9c-4,0-7.2,3.3-7.2,7.2s3.3,7.2,7.2,7.2s7.2-3.3,7.2-7.2S80.5,57.9,76.5,57.9z M76.5,68.4  c-1.8,0-3.2-1.5-3.2-3.2s1.5-3.2,3.2-3.2s3.2,1.5,3.2,3.2S78.3,68.4,76.5,68.4z"></path><path fill="#000000" d="M36.1,29.5c0,4.3,3.5,7.8,7.8,7.8s7.8-3.5,7.8-7.8s-3.5-7.8-7.8-7.8S36.1,25.2,36.1,29.5z M47.6,29.5  c0,2.1-1.7,3.8-3.8,3.8s-3.8-1.7-3.8-3.8s1.7-3.8,3.8-3.8S47.6,27.4,47.6,29.5z"></path></svg>