<?xml version="1.0" encoding="utf-8"?>
<!-- Generator: Adobe Illustrator 15.1.0, SVG Export Plug-In . SVG Version: 6.00 Build 0)  -->
<!DOCTYPE svg PUBLIC "-//W3C//DTD SVG 1.1//EN" "http://www.w3.org/Graphics/SVG/1.1/DTD/svg11.dtd">
<svg version="1.1" id="Calque_1" xmlns="http://www.w3.org/2000/svg" xmlns:xlink="http://www.w3.org/1999/xlink" x="0px" y="0px"
	 width="20.149px" height="22.371px" viewBox="0 0 20.149 22.371" enable-background="new 0 0 20.149 22.371" xml:space="preserve">
<g>
	<path d="M11.002,22.371c2.552-0.23,4.806-1.395,6.255-3.26c3.086-3.577,3.695-7.785,1.864-12.863
		c-0.976-2.709-0.094-4.441-0.06-4.505c0.151-0.275,0.153-0.608,0.005-0.884c-0.147-0.277-0.427-0.46-0.74-0.486
		c-2.971-0.244-4.605,1.618-5.401,3.465l-2.058-3.389c-0.163-0.268-0.448-0.435-0.762-0.445C9.783-0.027,9.497,0.141,9.317,0.399
		c-0.061,0.086-1.119,1.603-2.14,3.328C6.364,1.919,4.745,0.135,1.825,0.373C1.515,0.399,1.241,0.582,1.09,0.855
		C0.941,1.127,0.94,1.46,1.084,1.735c0.039,0.072,0.92,1.804-0.055,4.513c-1.831,5.078-1.22,9.285,1.834,12.825
		c1.373,1.769,3.429,2.898,5.768,3.231c0.046,0.015,0.093,0.018,0.141,0.022c0.125,0.017,0.25,0.033,0.378,0.044 M16.957,2.308
		c-0.209,1.062-0.271,2.645,0.422,4.568c1.585,4.393,1.086,8-1.555,11.063c-0.743,0.955-1.723,1.659-2.857,2.101
		c3.867-7.475,2.046-12.313,1.215-13.88C14.261,5.612,14.759,2.881,16.957,2.308 M10.035,2.647l2.159,3.555
		c0.01,0.172,0.049,0.344,0.158,0.494c0.035,0.049,3.452,4.976-1.787,13.847c-0.164,0.01-0.324,0.024-0.49,0.024
		c-0.218,0-0.429-0.016-0.641-0.031C4.255,11.765,7.5,6.911,7.654,6.692c0.013-0.017,0.014-0.038,0.024-0.055
		c0.017-0.026,0.04-0.046,0.053-0.074C8.388,5.233,9.355,3.687,10.035,2.647 M4.294,17.9c-2.608-3.025-3.107-6.631-1.524-11.024
		C3.463,4.953,3.401,3.37,3.191,2.308c1.996,0.521,2.59,2.822,2.742,3.648C5.181,7.263,3,12.176,7,19.965
		C5.938,19.516,5.015,18.826,4.294,17.9"/>
</g>
</svg>
