<?xml version="1.0" standalone="no"?>
<!DOCTYPE svg PUBLIC "-//W3C//DTD SVG 20010904//EN"
 "http://www.w3.org/TR/2001/REC-SVG-20010904/DTD/svg10.dtd">
<svg version="1.0" xmlns="http://www.w3.org/2000/svg"
 width="110.000000pt" height="110.000000pt" viewBox="0 0 110.000000 110.000000"
 preserveAspectRatio="xMidYMid meet">
<metadata>
Created by potrace 1.11, written by Peter Selinger 2001-2013
</metadata>
<g transform="translate(0.000000,110.000000) scale(0.100000,-0.100000)"
fill="#000000" stroke="none">
<path d="M40 704 c0 -385 1 -395 19 -389 30 9 33 -10 6 -35 -24 -23 -25 -28
-25 -152 l0 -128 215 0 c118 0 215 1 215 3 0 1 -14 29 -30 62 -16 33 -25 61
-20 63 19 7 50 -19 50 -42 0 -13 7 -29 15 -36 9 -7 14 -19 11 -26 -8 -20 18
-24 156 -24 l131 0 46 43 c59 55 128 68 198 37 l43 -19 0 26 c0 42 -32 99 -64
113 l-29 13 24 13 c52 27 94 124 55 124 -13 0 -13 4 0 27 7 16 14 48 14 72 0
39 -2 43 -13 27 -12 -16 -13 -13 -9 20 2 22 8 44 12 49 4 6 9 133 9 283 l2
272 -516 0 -515 0 0 -396z m900 147 c-15 -30 -12 -107 5 -121 8 -7 15 -24 14
-39 0 -24 -2 -22 -19 14 -27 58 -26 165 1 165 6 0 5 -8 -1 -19z m58 -76 c-1
-33 -2 -40 -5 -20 -3 17 -9 34 -14 40 -5 5 -9 22 -9 39 0 28 1 29 15 10 9 -11
14 -39 13 -69z m-278 -45 c0 -5 -5 -10 -11 -10 -5 0 -7 5 -4 10 3 6 8 10 11
10 2 0 4 -4 4 -10z m100 -15 c11 -10 20 -25 20 -34 0 -9 11 -29 24 -46 l25
-30 10 25 c8 21 10 22 10 6 1 -23 17 -11 23 16 3 14 6 15 21 3 15 -11 16 -17
7 -34 -6 -13 -7 -21 -1 -21 5 0 13 9 16 21 4 11 9 18 12 16 3 -3 -1 -21 -8
-40 -8 -25 -17 -33 -27 -29 -13 5 -14 -8 -9 -86 6 -90 5 -91 -34 -172 -54
-112 -124 -205 -168 -221 -19 -8 -28 -5 -42 9 -17 18 -15 20 37 42 30 12 53
25 50 28 -3 2 -27 -4 -53 -16 -60 -25 -118 -38 -109 -24 3 5 -2 13 -11 16 -9
4 -20 1 -25 -6 -6 -10 -8 -10 -8 -1 0 7 12 19 28 28 28 16 27 16 -40 -1 -15
-3 -19 -2 -10 4 7 5 10 16 7 24 -5 13 12 23 77 48 46 18 97 43 114 56 17 12
34 20 38 17 3 -3 12 0 21 7 11 9 15 9 15 1 0 -7 4 -10 8 -7 15 9 -4 -83 -21
-102 -33 -36 -16 -35 18 1 33 35 35 41 35 108 l0 71 -37 -7 c-47 -8 -59 -15
-43 -25 22 -14 -67 -77 -153 -107 -45 -17 -91 -34 -101 -38 -16 -7 -18 -5 -13
8 3 8 2 17 -4 19 -5 2 -20 33 -32 70 -23 65 -23 67 -5 82 10 9 16 21 12 27 -4
7 1 9 15 4 37 -11 23 10 -39 60 -33 27 -59 49 -57 51 6 6 117 -30 117 -38 0
-4 -7 -8 -15 -8 -8 0 -15 -5 -15 -11 0 -8 12 -10 35 -6 30 5 35 3 35 -15 0
-16 5 -19 23 -14 12 3 35 -1 51 -9 36 -19 32 -20 44 15 7 19 23 34 45 44 49
20 67 51 67 112 l0 52 -41 -3 c-34 -2 -45 -9 -71 -44 -34 -47 -46 -49 -23 -5
23 45 19 61 -9 35 -21 -20 -27 -21 -48 -10 -20 11 -20 14 -5 17 9 2 15 8 11
13 -3 6 12 10 38 9 69 -1 147 6 155 13 3 4 -5 7 -18 7 -33 1 -62 23 -48 37 15
15 56 9 79 -12z m165 -35 c-4 -12 -9 -19 -12 -17 -3 3 -2 15 2 27 4 12 9 19
12 17 3 -3 2 -15 -2 -27z m-478 -70 c-6 -23 5 -26 22 -6 9 11 9 15 -1 20 -7 3
7 3 32 0 69 -9 72 -14 35 -58 l-33 -39 -53 51 c-53 51 -54 52 -25 52 23 0 27
-3 23 -20z m271 -26 c3 -35 -1 -45 -24 -63 -28 -22 -100 -48 -109 -39 -3 3 0
17 6 32 11 23 16 26 48 20 33 -6 34 -5 17 8 -17 14 -18 15 -2 21 10 4 22 5 27
1 15 -9 21 23 9 46 -10 19 -9 21 7 18 13 -2 19 -14 21 -44z m282 -12 c0 -5 -7
-17 -15 -28 -8 -10 -15 -30 -15 -44 0 -14 -8 -34 -16 -45 -14 -19 -15 -16 -9
30 8 59 23 95 42 95 7 0 13 -4 13 -8z m-625 -101 c46 -17 72 -41 45 -41 -6 0
-8 -5 -4 -12 5 -8 2 -9 -11 -4 -15 5 -16 4 -5 -9 21 -25 -6 -18 -36 10 -15 14
-38 28 -51 31 -13 4 -23 10 -23 15 0 5 7 6 15 2 9 -3 15 -2 14 3 -2 11 0 24 4
24 1 0 24 -8 52 -19z m-95 -1 c0 -5 -5 -10 -11 -10 -5 0 -7 5 -4 10 3 6 8 10
11 10 2 0 4 -4 4 -10z m-69 -50 c5 0 9 -6 9 -14 0 -22 30 -43 39 -27 6 9 10 9
19 -1 8 -10 2 -14 -28 -16 -31 -2 -42 3 -59 24 -25 32 -27 48 -5 40 9 -3 20
-6 25 -6z m168 -29 c11 -7 9 -14 -15 -34 -29 -25 -54 -26 -54 -1 0 8 7 17 16
21 13 5 13 7 2 14 -9 6 -5 9 12 9 14 0 31 -4 39 -9z m-101 -65 c-7 -8 -15 -10
-18 -6 -3 4 -12 10 -20 13 -8 3 0 6 18 6 28 1 31 -1 20 -13z m472 4 c0 -5 -5
-10 -11 -10 -5 0 -7 5 -4 10 3 6 8 10 11 10 2 0 4 -4 4 -10z m-505 -130 c3 -6
-4 -10 -17 -10 -18 0 -20 2 -8 10 19 12 18 12 25 0z m-206 -43 c-2 -1 -13 -9
-24 -17 -19 -14 -19 -14 -6 3 7 9 18 17 24 17 6 0 8 -1 6 -3z m238 -49 c-3 -8
-6 -5 -6 6 -1 11 2 17 5 13 3 -3 4 -12 1 -19z m-42 -18 c3 -5 1 -10 -4 -10 -6
0 -11 5 -11 10 0 6 2 10 4 10 3 0 8 -4 11 -10z m105 -25 c0 -5 -5 -3 -10 5 -5
8 -10 20 -10 25 0 6 5 3 10 -5 5 -8 10 -19 10 -25z m-256 -30 c-10 -8 -23 -14
-29 -14 -5 0 -1 6 9 14 11 8 24 15 30 15 5 0 1 -7 -10 -15z"/>
<path d="M809 286 c-7 -14 -16 -26 -20 -26 -5 0 -13 -10 -20 -21 -11 -21 -11
-21 14 -3 29 21 54 61 44 70 -3 4 -12 -5 -18 -20z"/>
</g>
</svg>
