<?xml version="1.0" encoding="utf-8"?>
<!-- Generator: Adobe Illustrator 14.0.0, SVG Export Plug-In . SVG Version: 6.00 Build 43363)  -->
<!DOCTYPE svg PUBLIC "-//W3C//DTD SVG 1.1//EN" "http://www.w3.org/Graphics/SVG/1.1/DTD/svg11.dtd">
<svg version="1.1" id="Calque_1" xmlns="http://www.w3.org/2000/svg" xmlns:xlink="http://www.w3.org/1999/xlink" x="0px" y="0px"
	 width="117.047px" height="95.882px" viewBox="0 0 117.047 95.882" enable-background="new 0 0 117.047 95.882"
	 xml:space="preserve">
<g>
	<path fill="#FFFFFF" d="M29.922,20.843c0.698-1.082,1.047-2.27,1.047-3.565c0-1.194-0.283-2.273-0.849-3.235
		s-1.273-1.732-2.122-2.311c-0.849-0.578-1.811-0.959-2.886-1.141c-1.075-0.182-2.707-0.273-4.895-0.273H9.164V37.97h9.413
		c3.559-0.025,5.803-0.088,6.734-0.188c1.483-0.164,2.731-0.601,3.744-1.311c1.012-0.71,1.811-1.66,2.396-2.848
		c0.584-1.188,0.877-2.411,0.877-3.669c0-1.597-0.453-2.986-1.358-4.168c-0.906-1.182-2.201-2.018-3.886-2.509
		C28.278,22.735,29.224,21.924,29.922,20.843z M14.748,14.92h3.207c2.628,0,4.219,0.032,4.772,0.094
		c0.931,0.113,1.632,0.438,2.104,0.972c0.471,0.535,0.707,1.229,0.707,2.084c0,0.893-0.273,1.613-0.82,2.16
		c-0.547,0.547-1.299,0.877-2.254,0.99c-0.528,0.063-1.88,0.094-4.056,0.094h-3.659L14.748,14.92L14.748,14.92z M25.772,32.038
		c-0.522,0.584-1.198,0.953-2.028,1.104c-0.541,0.113-1.817,0.169-3.829,0.169h-5.168v-7.394h4.508c2.54,0,4.19,0.132,4.951,0.396
		c0.761,0.264,1.342,0.686,1.745,1.264c0.402,0.579,0.604,1.283,0.604,2.112C26.555,30.67,26.294,31.453,25.772,32.038z"/>
	<path fill="#FFFFFF" d="M33.035,37.97h5.923l2.282-6.281h11.053l2.415,6.281h6.074L49.709,10.318h-5.904L33.035,37.97z
		 M50.501,27.03h-7.545l3.735-10.261L50.501,27.03z"/>
	<polygon fill="#FFFFFF" points="81.54,14.996 81.54,10.318 62.583,10.318 62.583,37.97 68.167,37.97 68.167,26.219 79.709,26.219 
		79.709,21.541 68.167,21.541 68.167,14.996 	"/>
	<path fill="#FFFFFF" d="M88.208,31.688h11.054l2.413,6.281h6.074L96.676,10.318h-5.903L80.002,37.97h5.922L88.208,31.688z
		 M93.659,16.769l3.811,10.261h-7.545L93.659,16.769z"/>
	<path fill="#FFFFFF" d="M29.922,68.227c0.698-1.082,1.047-2.271,1.047-3.565c0-1.193-0.283-2.271-0.849-3.234
		c-0.566-0.961-1.273-1.731-2.122-2.311c-0.849-0.578-1.811-0.959-2.886-1.142c-1.075-0.183-2.707-0.272-4.895-0.272H9.164v27.651
		h9.413c3.559-0.024,5.803-0.088,6.734-0.188c1.483-0.164,2.731-0.601,3.744-1.312c1.012-0.71,1.811-1.66,2.396-2.849
		c0.584-1.188,0.877-2.41,0.877-3.668c0-1.598-0.453-2.986-1.358-4.17c-0.906-1.182-2.201-2.018-3.886-2.508
		C28.278,70.119,29.224,69.308,29.922,68.227z M14.748,62.304h3.207c2.628,0,4.219,0.031,4.772,0.094
		c0.931,0.113,1.632,0.438,2.104,0.973c0.471,0.535,0.707,1.229,0.707,2.084c0,0.894-0.273,1.612-0.82,2.16
		c-0.547,0.547-1.299,0.877-2.254,0.989c-0.528,0.063-1.88,0.095-4.056,0.095h-3.659L14.748,62.304L14.748,62.304z M25.772,79.421
		c-0.522,0.584-1.198,0.953-2.028,1.104c-0.541,0.113-1.817,0.17-3.829,0.17h-5.168V73.3h4.508c2.54,0,4.19,0.133,4.951,0.396
		c0.761,0.265,1.342,0.687,1.745,1.265c0.402,0.578,0.604,1.283,0.604,2.111C26.555,78.054,26.294,78.835,25.772,79.421z"/>
	<path fill="#FFFFFF" d="M52.293,79.072l2.415,6.281h6.074L49.709,57.701h-5.904l-10.77,27.653h5.923l2.282-6.28h11.053V79.072z
		 M46.691,64.152l3.81,10.262h-7.545L46.691,64.152z"/>
	<polygon fill="#FFFFFF" points="81.54,62.378 81.54,57.701 62.583,57.701 62.583,85.354 68.167,85.354 68.167,73.603 
		79.709,73.603 79.709,68.923 68.167,68.923 68.167,62.378 	"/>
	<path fill="#FFFFFF" d="M104.297,82.562c1.281-1.245,2.27-2.873,2.961-4.885c0.566-1.647,0.85-3.609,0.85-5.887
		c0-2.59-0.302-4.769-0.904-6.535c-0.604-1.766-1.484-3.26-2.643-4.479c-1.156-1.219-2.546-2.067-4.168-2.546
		c-1.207-0.354-2.962-0.527-5.264-0.527H84.926v27.651h10.506c2.063,0,3.709-0.194,4.941-0.585
		C102.021,84.24,103.329,83.505,104.297,82.562z M98.054,80.431c-0.691,0.176-1.817,0.264-3.377,0.264h-4.169V62.378h2.51
		c2.275,0,3.804,0.088,4.583,0.266c1.044,0.227,1.905,0.66,2.584,1.301c0.681,0.643,1.208,1.534,1.585,2.68
		c0.377,1.145,0.564,2.785,0.564,4.922c0,2.139-0.188,3.826-0.564,5.064c-0.377,1.239-0.865,2.129-1.462,2.67
		C99.709,79.82,98.959,80.205,98.054,80.431z"/>
	<rect y="46.5" fill="#FFFFFF" width="117.047" height="3.5"/>
	<path fill="#FFFFFF" d="M3.5,9.882C3.5,6.087,6.587,3,10.382,3H107c3.795,0,6.881,3.087,6.881,6.882v30.451h3V9.882
		C116.881,4.433,112.45,0,107,0H10.382C4.933,0,0.5,4.433,0.5,9.882v30.451h3V9.882z"/>
	<path fill="#FFFFFF" d="M113.881,86c0,3.795-3.086,6.883-6.881,6.883H10.382C6.587,92.882,3.5,89.794,3.5,86V57h-3v29
		c0,5.449,4.433,9.883,9.882,9.883H107c5.449,0,9.881-4.434,9.881-9.883V57h-3V86z"/>
</g>
</svg>
